<svg width="1920" height="1080" viewBox="0 0 1920 1080" fill="none" xmlns="http://www.w3.org/2000/svg">
    <path d="M-90.3051 -12.3763L797.216 322.961L1167.39 1148.45M-105.89 2.49326L781.631 337.83L1151.32 1162.24M-121.486 17.3517L766.046 352.7L1135.26 1176.04M-137.07 32.2213L750.462 367.559L1119.19 1189.82M-152.655 47.0907L734.877 382.428L1103.12 1203.62M-168.24 61.9601L719.281 397.297L1087.05 1217.41M-183.823 76.8186L703.698 412.167L1070.99 1231.21M-199.408 91.6882L688.113 427.025L1054.92 1244.99M-214.993 106.558L672.527 441.895L1038.85 1258.79M-230.577 121.416L656.944 456.765L1022.79 1272.58M-246.162 136.286L641.359 471.623L1006.72 1286.37M-261.758 151.155L625.774 486.492L990.645 1300.16M-277.341 166.025L610.19 501.362L974.576 1313.96M-292.926 180.883L594.606 516.231L958.516 1327.75M-308.512 195.753L579.009 531.09L942.445 1341.54M-324.095 210.622L563.426 545.959L926.376 1355.33M-339.68 225.481L547.841 560.829L910.316 1369.13M-355.265 240.35L532.256 575.687L894.245 1382.92M-370.848 255.22L516.672 590.557L878.175 1396.71M-386.445 270.089L501.087 605.426L862.104 1410.5M-402.028 284.948L485.504 620.296L846.046 1424.3M-417.613 299.817L469.919 635.154L829.975 1438.09M-433.198 314.686L454.323 650.024L813.904 1451.88M-448.782 329.545L438.739 664.894L797.834 1465.67M-464.367 344.415L423.154 679.752L781.774 1479.47M-479.952 359.284L407.569 694.621L765.703 1493.26M-495.535 374.142L391.986 709.491L749.634 1507.05M-511.12 389.012L376.401 724.36L733.574 1520.84M-526.716 403.882L360.816 739.219L717.503 1534.64M-542.3 418.751L345.232 754.088L701.434 1548.42M-557.885 433.61L329.647 768.958L685.362 1562.22M-573.47 448.479L314.051 783.816L669.302 1576.01M-589.053 463.349L298.468 798.686L653.233 1589.81M-604.638 478.207L282.883 813.555L637.162 1603.59M-620.223 493.077L267.298 828.425L621.102 1617.39M-635.807 507.946L251.714 843.284L605.033 1631.18M-651.392 522.815L236.129 858.153L588.962 1644.98M-666.988 537.674L220.544 873.022L572.89 1658.76M-682.571 552.543L204.96 887.881L556.832 1672.56M-698.156 567.413L189.365 902.75L540.761 1686.35M-713.742 582.272L173.779 917.62L524.69 1700.15M-729.325 597.141L158.196 932.478L508.621 1713.93M-744.91 612.01L142.611 947.348L492.561 1727.72M-760.495 626.88L127.026 962.217L476.489 1741.52M-776.078 641.738L111.442 977.087L460.42 1755.31M-791.675 656.608L95.8574 991.945L444.36 1769.1M-807.258 671.478L80.2741 1006.81L428.291 1782.89M-822.843 686.336L64.689 1021.68L412.22 1796.69M-838.428 701.206L49.0927 1036.54L396.149 1810.48M-854.011 716.075L33.5094 1051.41L380.091 1824.27M-869.597 730.944L17.9241 1066.28L364.019 1838.06M-885.182 745.803L2.33912 1081.15L347.948 1851.86M-900.765 760.672L-13.244 1096.01L331.89 1865.64M-916.35 775.542L-28.8294 1110.88L315.819 1879.44M-931.946 790.401L-44.4145 1125.75L299.748 1893.23M-947.53 805.27L-59.9977 1140.61L283.678 1907.03M-963.115 820.139L-75.5828 1155.48L267.619 1920.81M2109.88 1159.44L1145.69 848.608L717.935 4.61421M2123.83 1141.61L1160.24 830.977L732.723 -12.5421M2137.77 1123.78L1174.8 813.345L747.525 -29.6983M2151.71 1105.95L1189.35 795.714L762.314 -46.8546M2165.66 1088.13L1203.9 778.072L777.114 -64.0109M2179.6 1070.3L1218.45 760.44L791.902 -81.1672M2193.55 1052.47L1233.01 742.809L806.704 -98.3235M2207.49 1034.64L1247.55 725.178L821.493 -115.479M2221.44 1016.81L1262.11 707.547L836.292 -132.636M2235.37 998.983L1276.67 689.915L851.081 -149.781M2249.32 981.152L1291.21 672.284L865.883 -166.937M2263.26 963.322L1305.77 654.653L880.672 -184.094M2277.2 945.492L1320.32 637.01L895.471 -201.25M2291.15 927.662L1334.88 619.379L910.262 -218.406M2305.09 909.843L1349.42 601.748L925.062 -235.562M2319.04 892.012L1363.98 584.116L939.85 -252.719M2332.98 874.182L1378.54 566.485L954.65 -269.875M2346.93 856.352L1393.08 548.854L969.441 -287.02M2360.87 838.522L1407.64 531.222L984.229 -304.177M2374.82 820.692L1422.19 513.591L999.029 -321.333M2388.76 802.861L1436.74 495.949L1013.82 -338.489M2402.69 785.031L1451.29 478.317L1028.62 -355.645M2416.64 767.201L1465.85 460.686L1043.41 -372.802M2430.58 749.382L1480.4 443.055L1058.21 -389.958M2444.53 731.552L1494.95 425.423L1073 -407.114M2458.47 713.722L1509.51 407.792L1087.8 -424.26M2472.42 695.892L1524.05 390.161L1102.59 -441.416M2486.36 678.061L1538.61 372.529L1117.39 -458.572M2500.31 660.231L1553.16 354.887L1132.18 -475.729M2514.25 642.401L1567.71 337.256L1146.98 -492.885M2528.19 624.571L1582.27 319.624L1161.77 -510.041M2542.14 606.741L1596.82 301.993L1176.57 -527.197M2556.08 588.922L1611.38 284.362L1191.36 -544.354M2570.03 571.091L1625.92 266.73L1206.16 -561.499M2583.96 553.261L1640.48 249.099L1220.95 -578.655M2597.92 535.431L1655.03 231.468L1235.75 -595.812M2611.85 517.601L1669.58 213.825L1250.54 -612.968M2625.8 499.771L1684.14 196.195L1265.34 -630.123M2639.74 481.941L1698.69 178.563L1280.12 -647.28M2653.68 464.111L1713.24 160.932L1294.93 -664.436M2667.63 446.281L1727.79 143.301L1309.71 -681.592M2681.57 428.462L1742.35 125.669L1324.51 -698.749M2695.52 410.632L1756.91 108.038L1339.3 -715.894M2709.46 392.802L1771.45 90.407L1354.1 -733.05M2723.41 374.971L1786.01 72.7646L1368.89 -750.206M2737.35 357.141L1800.55 55.1332L1383.69 -767.363M2751.3 339.311L1815.11 37.5018L1398.48 -784.519M2765.24 321.481L1829.66 19.8705L1413.28 -801.675M2779.17 303.651L1844.21 2.23914L1428.07 -818.832M2793.12 285.82L1858.77 -15.3922L1442.87 -835.988M2807.06 267.99L1873.32 -33.0235L1457.66 -853.133M2821.01 250.171L1887.88 -50.6549L1472.46 -870.29M2834.95 232.341L1902.42 -68.2973L1487.25 -887.446M2848.9 214.511L1916.98 -85.9285L1502.05 -904.602M2862.84 196.68L1931.53 -103.56L1516.84 -921.758M2876.79 178.85L1946.08 -121.191L1531.64 -938.915M2890.73 161.02L1960.64 -138.823L1546.43 -956.071" stroke="url(#paint0_linear_97_897)" stroke-miterlimit="10"/>
    <defs>
        <linearGradient id="paint0_linear_97_897" x1="1546.43" y1="-398.797" x2="2890.73" y2="-398.797" gradientUnits="userSpaceOnUse">
            <stop stop-color="#1B8842"/>
            <stop offset="0.916667" stop-color="#F9F9F9"/>
        </linearGradient>
    </defs>
</svg>
